# MagicaVoxel @ Ephtracy

# group
o 

# material
mtllib ship.mtl
usemtl palette

# normals
vn -1 0 0
vn 1 0 0
vn 0 0 1
vn 0 0 -1
vn 0 -1 0
vn 0 1 0

# texcoords
vt 0.0917969 0.5
vt 0.642578 0.5
vt 0.857422 0.5
vt 0.958984 0.5
vt 0.974609 0.5
vt 0.978516 0.5
vt 0.986328 0.5
vt 0.990234 0.5

# verts
v -1.9 0.7 1.2
v -1.9 0.7 0.4
v -1.9 0.7 -2.4
v -1.9 0.7 -3.2
v -1.9 0.9 1.2
v -1.9 0.9 1
v -1.9 0.9 0.6
v -1.9 0.9 0.4
v -1.9 0.9 -2.4
v -1.9 0.9 -2.6
v -1.9 0.9 -3
v -1.9 0.9 -3.2
v -1.9 2 1.2
v -1.9 2 1
v -1.9 2 0.6
v -1.9 2 0.4
v -1.9 2 -2.4
v -1.9 2 -2.6
v -1.9 2 -3
v -1.9 2 -3.2
v -1.9 2.1 1.2
v -1.9 2.1 0.4
v -1.9 2.1 -2.4
v -1.9 2.1 -3.2
v -1.8 0.4 -0.4
v -1.8 0.4 -1.6
v -1.8 0.6 -0.4
v -1.8 0.6 -1.6
v -1.7 0.6 -0.5
v -1.7 0.6 -0.9
v -1.7 0.6 -1.1
v -1.7 0.6 -1.5
v -1.7 2 -0.5
v -1.7 2 -0.7
v -1.7 2 -1.3
v -1.7 2 -1.5
v -1.7 2.3 -0.7
v -1.7 2.3 -0.8
v -1.7 2.3 -1.2
v -1.7 2.3 -1.3
v -1.7 3 -0.8
v -1.7 3 -0.9
v -1.7 3 -1.1
v -1.7 3 -1.2
v -1.7 3.1 -0.9
v -1.7 3.1 -1.1
v -1.6 1.2 0.4
v -1.6 1.2 0.1
v -1.6 1.2 -0.2
v -1.6 1.2 -0.5
v -1.6 1.2 -1.5
v -1.6 1.2 -1.8
v -1.6 1.2 -2.1
v -1.6 1.2 -2.4
v -1.6 1.8 0.4
v -1.6 1.8 0.1
v -1.6 1.8 -0.2
v -1.6 1.8 -0.5
v -1.6 1.8 -1.5
v -1.6 1.8 -1.8
v -1.6 1.8 -2.1
v -1.6 1.8 -2.4
v -1.6 2 0.9
v -1.6 2 0.7
v -1.6 2 -2.7
v -1.6 2 -2.9
v -1.6 2.1 0.9
v -1.6 2.1 0.7
v -1.6 2.1 -2.7
v -1.6 2.1 -2.9
v -1.5 2 1
v -1.5 2 0.9
v -1.5 2 0.7
v -1.5 2 0.6
v -1.5 2 -2.6
v -1.5 2 -2.7
v -1.5 2 -2.9
v -1.5 2 -3
v -1.5 2.1 1
v -1.5 2.1 0.9
v -1.5 2.1 0.7
v -1.5 2.1 0.6
v -1.5 2.1 -2.6
v -1.5 2.1 -2.7
v -1.5 2.1 -2.9
v -1.5 2.1 -3
v -1.2 0.4 -0.5
v -1.2 0.4 -1.5
v -1.2 0.5 -0.5
v -1.2 0.5 -1.5
v -1.1 0.7 1.1
v -1.1 0.7 0.5
v -1.1 0.7 -2.5
v -1.1 0.7 -3.1
v -1.1 0.8 1.1
v -1.1 0.8 0.5
v -1.1 0.8 -2.5
v -1.1 0.8 -3.1
v -1.1 2 1.1
v -1.1 2 0.5
v -1.1 2 -2.5
v -1.1 2 -3.1
v -1.1 2.1 1.1
v -1.1 2.1 0.5
v -1.1 2.1 -2.5
v -1.1 2.1 -3.1
v -1.8 0.7 1.1
v -1.8 0.7 0.5
v -1.8 0.7 -2.5
v -1.8 0.7 -3.1
v -1.8 0.8 1.1
v -1.8 0.8 0.5
v -1.8 0.8 -2.5
v -1.8 0.8 -3.1
v -1.8 2 1.1
v -1.8 2 0.5
v -1.8 2 -2.5
v -1.8 2 -3.1
v -1.8 2.1 1.1
v -1.8 2.1 0.5
v -1.8 2.1 -2.5
v -1.8 2.1 -3.1
v -1.7 0.4 -0.5
v -1.7 0.4 -1.5
v -1.7 0.5 -0.5
v -1.7 0.5 -1.5
v -1.4 2 1
v -1.4 2 0.9
v -1.4 2 0.7
v -1.4 2 0.6
v -1.4 2 -2.6
v -1.4 2 -2.7
v -1.4 2 -2.9
v -1.4 2 -3
v -1.4 2.1 1
v -1.4 2.1 0.9
v -1.4 2.1 0.7
v -1.4 2.1 0.6
v -1.4 2.1 -2.6
v -1.4 2.1 -2.7
v -1.4 2.1 -2.9
v -1.4 2.1 -3
v -1.3 1.2 0.4
v -1.3 1.2 0.1
v -1.3 1.2 -0.2
v -1.3 1.2 -0.5
v -1.3 1.2 -1.5
v -1.3 1.2 -1.8
v -1.3 1.2 -2.1
v -1.3 1.2 -2.4
v -1.3 1.8 0.4
v -1.3 1.8 0.1
v -1.3 1.8 -0.2
v -1.3 1.8 -0.5
v -1.3 1.8 -1.5
v -1.3 1.8 -1.8
v -1.3 1.8 -2.1
v -1.3 1.8 -2.4
v -1.3 2 0.9
v -1.3 2 0.7
v -1.3 2 -2.7
v -1.3 2 -2.9
v -1.3 2.1 0.9
v -1.3 2.1 0.7
v -1.3 2.1 -2.7
v -1.3 2.1 -2.9
v -1.2 0.6 -0.5
v -1.2 0.6 -0.7
v -1.2 0.6 -1.3
v -1.2 0.6 -1.5
v -1.2 1.7 -0.7
v -1.2 1.7 -0.8
v -1.2 1.7 -1.2
v -1.2 1.7 -1.3
v -1.2 1.8 -0.8
v -1.2 1.8 -0.9
v -1.2 1.8 -1.1
v -1.2 1.8 -1.2
v -1.2 2 -0.5
v -1.2 2 -0.7
v -1.2 2 -1.3
v -1.2 2 -1.5
v -1.2 2.3 -0.7
v -1.2 2.3 -0.8
v -1.2 2.3 -1.2
v -1.2 2.3 -1.3
v -1.2 3 -0.8
v -1.2 3 -0.9
v -1.2 3 -1.1
v -1.2 3 -1.2
v -1.2 3.1 -0.9
v -1.2 3.1 -1.1
v -1.1 0.4 -0.4
v -1.1 0.4 -1.6
v -1.1 0.6 -0.4
v -1.1 0.6 -0.7
v -1.1 0.6 -0.9
v -1.1 0.6 -1.1
v -1.1 0.6 -1.3
v -1.1 0.6 -1.6
v -1.1 1.4 -0.8
v -1.1 1.4 -0.9
v -1.1 1.4 -1.1
v -1.1 1.4 -1.2
v -1.1 1.7 -0.7
v -1.1 1.7 -0.8
v -1.1 1.7 -1.2
v -1.1 1.7 -1.3
v -1 0.7 1.2
v -1 0.7 0.4
v -1 0.7 -2.4
v -1 0.7 -3.2
v -1 0.9 1.2
v -1 0.9 1
v -1 0.9 0.6
v -1 0.9 0.4
v -1 0.9 -2.4
v -1 0.9 -2.6
v -1 0.9 -3
v -1 0.9 -3.2
v -1 2 1.2
v -1 2 1
v -1 2 0.6
v -1 2 0.4
v -1 2 -2.4
v -1 2 -2.6
v -1 2 -3
v -1 2 -3.2
v -1 2.1 1.2
v -1 2.1 0.4
v -1 2.1 -2.4
v -1 2.1 -3.2
v -1.9 0.7 1.2
v -1.9 0.9 1.2
v -1.9 2 1.2
v -1.9 2.1 1.2
v -1.6 0.9 1.2
v -1.6 2 1.2
v -1.3 0.9 1.2
v -1.3 2 1.2
v -1 0.7 1.2
v -1 0.9 1.2
v -1 2 1.2
v -1 2.1 1.2
v -1.5 2 1
v -1.5 2.1 1
v -1.4 2 1
v -1.4 2.1 1
v -1.6 2 0.9
v -1.6 2.1 0.9
v -1.5 2 0.9
v -1.5 2.1 0.9
v -1.4 2 0.9
v -1.4 2.1 0.9
v -1.3 2 0.9
v -1.3 2.1 0.9
v -1.8 0.7 0.5
v -1.8 0.8 0.5
v -1.8 2 0.5
v -1.8 2.1 0.5
v -1.1 0.7 0.5
v -1.1 0.8 0.5
v -1.1 2 0.5
v -1.1 2.1 0.5
v -1.8 0.4 -0.4
v -1.8 0.6 -0.4
v -1.1 0.4 -0.4
v -1.1 0.6 -0.4
v -1.7 0.6 -0.5
v -1.7 2 -0.5
v -1.6 1.2 -0.5
v -1.6 1.8 -0.5
v -1.3 1.2 -0.5
v -1.3 1.8 -0.5
v -1.2 0.6 -0.5
v -1.2 2 -0.5
v -1.7 2 -0.7
v -1.7 2.3 -0.7
v -1.2 0.6 -0.7
v -1.2 1.7 -0.7
v -1.2 2 -0.7
v -1.2 2.3 -0.7
v -1.1 0.6 -0.7
v -1.1 1.7 -0.7
v -1.7 2.3 -0.8
v -1.7 3 -0.8
v -1.2 2.3 -0.8
v -1.2 3 -0.8
v -1.7 3 -0.9
v -1.7 3.1 -0.9
v -1.2 3 -0.9
v -1.2 3.1 -0.9
v -1.7 0.4 -1.5
v -1.7 0.5 -1.5
v -1.2 0.4 -1.5
v -1.2 0.5 -1.5
v -1.9 0.7 -2.4
v -1.9 0.9 -2.4
v -1.9 2 -2.4
v -1.9 2.1 -2.4
v -1.6 1.2 -2.4
v -1.6 1.8 -2.4
v -1.3 1.2 -2.4
v -1.3 1.8 -2.4
v -1 0.7 -2.4
v -1 0.9 -2.4
v -1 2 -2.4
v -1 2.1 -2.4
v -1.5 2 -2.6
v -1.5 2.1 -2.6
v -1.4 2 -2.6
v -1.4 2.1 -2.6
v -1.6 2 -2.7
v -1.6 2.1 -2.7
v -1.5 2 -2.7
v -1.5 2.1 -2.7
v -1.4 2 -2.7
v -1.4 2.1 -2.7
v -1.3 2 -2.7
v -1.3 2.1 -2.7
v -1.8 0.7 -3.1
v -1.8 0.8 -3.1
v -1.8 2 -3.1
v -1.8 2.1 -3.1
v -1.1 0.7 -3.1
v -1.1 0.8 -3.1
v -1.1 2 -3.1
v -1.1 2.1 -3.1
v -1.8 0.7 1.1
v -1.8 0.8 1.1
v -1.8 2 1.1
v -1.8 2.1 1.1
v -1.1 0.7 1.1
v -1.1 0.8 1.1
v -1.1 2 1.1
v -1.1 2.1 1.1
v -1.6 2 0.7
v -1.6 2.1 0.7
v -1.5 2 0.7
v -1.5 2.1 0.7
v -1.4 2 0.7
v -1.4 2.1 0.7
v -1.3 2 0.7
v -1.3 2.1 0.7
v -1.5 2 0.6
v -1.5 2.1 0.6
v -1.4 2 0.6
v -1.4 2.1 0.6
v -1.9 0.7 0.4
v -1.9 0.9 0.4
v -1.9 2 0.4
v -1.9 2.1 0.4
v -1.6 1.2 0.4
v -1.6 1.8 0.4
v -1.3 1.2 0.4
v -1.3 1.8 0.4
v -1 0.7 0.4
v -1 0.9 0.4
v -1 2 0.4
v -1 2.1 0.4
v -1.7 0.4 -0.5
v -1.7 0.5 -0.5
v -1.2 0.4 -0.5
v -1.2 0.5 -0.5
v -1.7 3 -1.1
v -1.7 3.1 -1.1
v -1.2 3 -1.1
v -1.2 3.1 -1.1
v -1.7 2.3 -1.2
v -1.7 3 -1.2
v -1.2 2.3 -1.2
v -1.2 3 -1.2
v -1.7 2 -1.3
v -1.7 2.3 -1.3
v -1.2 0.6 -1.3
v -1.2 1.7 -1.3
v -1.2 2 -1.3
v -1.2 2.3 -1.3
v -1.1 0.6 -1.3
v -1.1 1.7 -1.3
v -1.7 0.6 -1.5
v -1.7 2 -1.5
v -1.6 1.2 -1.5
v -1.6 1.8 -1.5
v -1.3 1.2 -1.5
v -1.3 1.8 -1.5
v -1.2 0.6 -1.5
v -1.2 2 -1.5
v -1.8 0.4 -1.6
v -1.8 0.6 -1.6
v -1.1 0.4 -1.6
v -1.1 0.6 -1.6
v -1.8 0.7 -2.5
v -1.8 0.8 -2.5
v -1.8 2 -2.5
v -1.8 2.1 -2.5
v -1.1 0.7 -2.5
v -1.1 0.8 -2.5
v -1.1 2 -2.5
v -1.1 2.1 -2.5
v -1.6 2 -2.9
v -1.6 2.1 -2.9
v -1.5 2 -2.9
v -1.5 2.1 -2.9
v -1.4 2 -2.9
v -1.4 2.1 -2.9
v -1.3 2 -2.9
v -1.3 2.1 -2.9
v -1.5 2 -3
v -1.5 2.1 -3
v -1.4 2 -3
v -1.4 2.1 -3
v -1.9 0.7 -3.2
v -1.9 0.9 -3.2
v -1.9 2 -3.2
v -1.9 2.1 -3.2
v -1.6 0.9 -3.2
v -1.6 2 -3.2
v -1.3 0.9 -3.2
v -1.3 2 -3.2
v -1 0.7 -3.2
v -1 0.9 -3.2
v -1 2 -3.2
v -1 2.1 -3.2
v -1.8 0.4 -0.4
v -1.1 0.4 -0.4
v -1.7 0.4 -0.5
v -1.2 0.4 -0.5
v -1.7 0.4 -1.5
v -1.2 0.4 -1.5
v -1.8 0.4 -1.6
v -1.1 0.4 -1.6
v -1.7 0.5 -0.5
v -1.2 0.5 -0.5
v -1.7 0.5 -1.5
v -1.2 0.5 -1.5
v -1.9 0.7 1.2
v -1 0.7 1.2
v -1.8 0.7 1.1
v -1.1 0.7 1.1
v -1.8 0.7 0.5
v -1.1 0.7 0.5
v -1.9 0.7 0.4
v -1 0.7 0.4
v -1.9 0.7 -2.4
v -1 0.7 -2.4
v -1.8 0.7 -2.5
v -1.1 0.7 -2.5
v -1.8 0.7 -3.1
v -1.1 0.7 -3.1
v -1.9 0.7 -3.2
v -1 0.7 -3.2
v -1.8 0.8 1.1
v -1.1 0.8 1.1
v -1.8 0.8 0.5
v -1.1 0.8 0.5
v -1.8 0.8 -2.5
v -1.1 0.8 -2.5
v -1.8 0.8 -3.1
v -1.1 0.8 -3.1
v -1.6 1.2 0.4
v -1.3 1.2 0.4
v -1.6 1.2 0.1
v -1.3 1.2 0.1
v -1.6 1.2 -0.2
v -1.3 1.2 -0.2
v -1.6 1.2 -0.5
v -1.3 1.2 -0.5
v -1.6 1.2 -1.5
v -1.3 1.2 -1.5
v -1.6 1.2 -1.8
v -1.3 1.2 -1.8
v -1.6 1.2 -2.1
v -1.3 1.2 -2.1
v -1.6 1.2 -2.4
v -1.3 1.2 -2.4
v -1.8 0.6 -0.4
v -1.1 0.6 -0.4
v -1.7 0.6 -0.5
v -1.2 0.6 -0.5
v -1.2 0.6 -0.7
v -1.1 0.6 -0.7
v -1.7 0.6 -0.9
v -1.7 0.6 -1.1
v -1.2 0.6 -1.3
v -1.1 0.6 -1.3
v -1.7 0.6 -1.5
v -1.2 0.6 -1.5
v -1.8 0.6 -1.6
v -1.1 0.6 -1.6
v -1.2 1.7 -0.7
v -1.1 1.7 -0.7
v -1.2 1.7 -0.8
v -1.1 1.7 -0.8
v -1.2 1.7 -1.2
v -1.1 1.7 -1.2
v -1.2 1.7 -1.3
v -1.1 1.7 -1.3
v -1.6 1.8 0.4
v -1.3 1.8 0.4
v -1.6 1.8 0.1
v -1.3 1.8 0.1
v -1.6 1.8 -0.2
v -1.3 1.8 -0.2
v -1.6 1.8 -0.5
v -1.3 1.8 -0.5
v -1.6 1.8 -1.5
v -1.3 1.8 -1.5
v -1.6 1.8 -1.8
v -1.3 1.8 -1.8
v -1.6 1.8 -2.1
v -1.3 1.8 -2.1
v -1.6 1.8 -2.4
v -1.3 1.8 -2.4
v -1.8 2 1.1
v -1.1 2 1.1
v -1.6 2 1
v -1.5 2 1
v -1.4 2 1
v -1.3 2 1
v -1.7 2 0.9
v -1.6 2 0.9
v -1.5 2 0.9
v -1.4 2 0.9
v -1.3 2 0.9
v -1.2 2 0.9
v -1.7 2 0.7
v -1.6 2 0.7
v -1.5 2 0.7
v -1.4 2 0.7
v -1.3 2 0.7
v -1.2 2 0.7
v -1.6 2 0.6
v -1.5 2 0.6
v -1.4 2 0.6
v -1.3 2 0.6
v -1.8 2 0.5
v -1.1 2 0.5
v -1.7 2 -0.5
v -1.2 2 -0.5
v -1.7 2 -0.7
v -1.2 2 -0.7
v -1.7 2 -1.3
v -1.2 2 -1.3
v -1.7 2 -1.5
v -1.2 2 -1.5
v -1.8 2 -2.5
v -1.1 2 -2.5
v -1.6 2 -2.6
v -1.5 2 -2.6
v -1.4 2 -2.6
v -1.3 2 -2.6
v -1.7 2 -2.7
v -1.6 2 -2.7
v -1.5 2 -2.7
v -1.4 2 -2.7
v -1.3 2 -2.7
v -1.2 2 -2.7
v -1.7 2 -2.9
v -1.6 2 -2.9
v -1.5 2 -2.9
v -1.4 2 -2.9
v -1.3 2 -2.9
v -1.2 2 -2.9
v -1.6 2 -3
v -1.5 2 -3
v -1.4 2 -3
v -1.3 2 -3
v -1.8 2 -3.1
v -1.1 2 -3.1
v -1.9 2.1 1.2
v -1 2.1 1.2
v -1.8 2.1 1.1
v -1.1 2.1 1.1
v -1.5 2.1 1
v -1.4 2.1 1
v -1.6 2.1 0.9
v -1.5 2.1 0.9
v -1.4 2.1 0.9
v -1.3 2.1 0.9
v -1.6 2.1 0.7
v -1.5 2.1 0.7
v -1.4 2.1 0.7
v -1.3 2.1 0.7
v -1.5 2.1 0.6
v -1.4 2.1 0.6
v -1.8 2.1 0.5
v -1.1 2.1 0.5
v -1.9 2.1 0.4
v -1 2.1 0.4
v -1.9 2.1 -2.4
v -1 2.1 -2.4
v -1.8 2.1 -2.5
v -1.1 2.1 -2.5
v -1.5 2.1 -2.6
v -1.4 2.1 -2.6
v -1.6 2.1 -2.7
v -1.5 2.1 -2.7
v -1.4 2.1 -2.7
v -1.3 2.1 -2.7
v -1.6 2.1 -2.9
v -1.5 2.1 -2.9
v -1.4 2.1 -2.9
v -1.3 2.1 -2.9
v -1.5 2.1 -3
v -1.4 2.1 -3
v -1.8 2.1 -3.1
v -1.1 2.1 -3.1
v -1.9 2.1 -3.2
v -1 2.1 -3.2
v -1.7 2.3 -0.7
v -1.2 2.3 -0.7
v -1.7 2.3 -0.8
v -1.2 2.3 -0.8
v -1.7 2.3 -1.2
v -1.2 2.3 -1.2
v -1.7 2.3 -1.3
v -1.2 2.3 -1.3
v -1.7 3 -0.8
v -1.2 3 -0.8
v -1.7 3 -0.9
v -1.2 3 -0.9
v -1.7 3 -1.1
v -1.2 3 -1.1
v -1.7 3 -1.2
v -1.2 3 -1.2
v -1.7 3.1 -0.9
v -1.2 3.1 -0.9
v -1.7 3.1 -1.1
v -1.2 3.1 -1.1

# faces
f 5/7/1 2/7/1 1/7/1
f 6/7/1 2/7/1 5/7/1
f 7/7/1 2/7/1 6/7/1
f 8/7/1 2/7/1 7/7/1
f 9/7/1 4/7/1 3/7/1
f 10/7/1 4/7/1 9/7/1
f 11/7/1 4/7/1 10/7/1
f 12/7/1 4/7/1 11/7/1
f 13/4/1 6/4/1 5/4/1
f 14/3/1 7/3/1 6/3/1
f 14/4/1 6/4/1 13/4/1
f 15/4/1 8/4/1 7/4/1
f 15/3/1 7/3/1 14/3/1
f 16/4/1 8/4/1 15/4/1
f 17/4/1 10/4/1 9/4/1
f 18/3/1 11/3/1 10/3/1
f 18/4/1 10/4/1 17/4/1
f 19/4/1 12/4/1 11/4/1
f 19/3/1 11/3/1 18/3/1
f 20/4/1 12/4/1 19/4/1
f 21/7/1 14/7/1 13/7/1
f 21/7/1 16/7/1 15/7/1
f 21/7/1 15/7/1 14/7/1
f 22/7/1 16/7/1 21/7/1
f 23/7/1 20/7/1 19/7/1
f 23/7/1 18/7/1 17/7/1
f 23/7/1 19/7/1 18/7/1
f 24/7/1 20/7/1 23/7/1
f 27/7/1 26/7/1 25/7/1
f 28/7/1 26/7/1 27/7/1
f 33/4/1 30/4/1 29/4/1
f 34/4/1 30/4/1 33/4/1
f 35/4/1 32/4/1 31/4/1
f 36/4/1 32/4/1 35/4/1
f 37/4/1 30/4/1 34/4/1
f 38/4/1 30/4/1 37/4/1
f 39/4/1 35/4/1 31/4/1
f 40/4/1 35/4/1 39/4/1
f 41/4/1 30/4/1 38/4/1
f 42/3/1 31/3/1 30/3/1
f 42/4/1 30/4/1 41/4/1
f 43/4/1 39/4/1 31/4/1
f 43/3/1 31/3/1 42/3/1
f 44/4/1 39/4/1 43/4/1
f 45/3/1 43/3/1 42/3/1
f 46/3/1 43/3/1 45/3/1
f 55/4/1 48/4/1 47/4/1
f 56/3/1 49/3/1 48/3/1
f 56/4/1 48/4/1 55/4/1
f 57/4/1 50/4/1 49/4/1
f 57/3/1 49/3/1 56/3/1
f 58/4/1 50/4/1 57/4/1
f 59/4/1 52/4/1 51/4/1
f 60/3/1 53/3/1 52/3/1
f 60/4/1 52/4/1 59/4/1
f 61/4/1 54/4/1 53/4/1
f 61/3/1 53/3/1 60/3/1
f 62/4/1 54/4/1 61/4/1
f 67/8/1 64/8/1 63/8/1
f 68/8/1 64/8/1 67/8/1
f 69/8/1 66/8/1 65/8/1
f 70/8/1 66/8/1 69/8/1
f 79/8/1 72/8/1 71/8/1
f 80/8/1 72/8/1 79/8/1
f 81/8/1 74/8/1 73/8/1
f 82/8/1 74/8/1 81/8/1
f 83/8/1 76/8/1 75/8/1
f 84/8/1 76/8/1 83/8/1
f 85/8/1 78/8/1 77/8/1
f 86/8/1 78/8/1 85/8/1
f 89/7/1 88/7/1 87/7/1
f 90/7/1 88/7/1 89/7/1
f 95/7/1 92/7/1 91/7/1
f 96/7/1 92/7/1 95/7/1
f 97/7/1 94/7/1 93/7/1
f 98/7/1 94/7/1 97/7/1
f 103/7/1 100/7/1 99/7/1
f 104/7/1 100/7/1 103/7/1
f 105/7/1 102/7/1 101/7/1
f 106/7/1 102/7/1 105/7/1
f 107/7/2 108/7/2 111/7/2
f 111/7/2 108/7/2 112/7/2
f 109/7/2 110/7/2 113/7/2
f 113/7/2 110/7/2 114/7/2
f 115/7/2 116/7/2 119/7/2
f 119/7/2 116/7/2 120/7/2
f 117/7/2 118/7/2 121/7/2
f 121/7/2 118/7/2 122/7/2
f 123/7/2 124/7/2 125/7/2
f 125/7/2 124/7/2 126/7/2
f 127/8/2 128/8/2 135/8/2
f 135/8/2 128/8/2 136/8/2
f 129/8/2 130/8/2 137/8/2
f 137/8/2 130/8/2 138/8/2
f 131/8/2 132/8/2 139/8/2
f 139/8/2 132/8/2 140/8/2
f 133/8/2 134/8/2 141/8/2
f 141/8/2 134/8/2 142/8/2
f 143/4/2 144/4/2 151/4/2
f 144/3/2 145/3/2 152/3/2
f 151/4/2 144/4/2 152/4/2
f 145/4/2 146/4/2 153/4/2
f 152/3/2 145/3/2 153/3/2
f 153/4/2 146/4/2 154/4/2
f 147/4/2 148/4/2 155/4/2
f 148/3/2 149/3/2 156/3/2
f 155/4/2 148/4/2 156/4/2
f 149/4/2 150/4/2 157/4/2
f 156/3/2 149/3/2 157/3/2
f 157/4/2 150/4/2 158/4/2
f 159/8/2 160/8/2 163/8/2
f 163/8/2 160/8/2 164/8/2
f 161/8/2 162/8/2 165/8/2
f 165/8/2 162/8/2 166/8/2
f 167/4/2 168/4/2 171/4/2
f 169/4/2 170/4/2 174/4/2
f 172/2/2 173/2/2 175/2/2
f 171/4/2 172/4/2 175/4/2
f 175/2/2 173/2/2 176/2/2
f 176/2/2 173/2/2 177/2/2
f 173/4/2 174/4/2 178/4/2
f 177/2/2 173/2/2 178/2/2
f 167/4/2 171/4/2 179/4/2
f 171/4/2 175/4/2 179/4/2
f 175/4/2 176/4/2 179/4/2
f 179/4/2 176/4/2 180/4/2
f 178/4/2 174/4/2 181/4/2
f 174/4/2 170/4/2 181/4/2
f 177/4/2 178/4/2 181/4/2
f 181/4/2 170/4/2 182/4/2
f 180/4/2 176/4/2 183/4/2
f 183/4/2 176/4/2 184/4/2
f 177/4/2 181/4/2 185/4/2
f 185/4/2 181/4/2 186/4/2
f 184/4/2 176/4/2 187/4/2
f 176/3/2 177/3/2 188/3/2
f 187/4/2 176/4/2 188/4/2
f 177/4/2 185/4/2 189/4/2
f 188/3/2 177/3/2 189/3/2
f 189/4/2 185/4/2 190/4/2
f 188/3/2 189/3/2 191/3/2
f 191/3/2 189/3/2 192/3/2
f 193/7/2 194/7/2 195/7/2
f 195/7/2 194/7/2 196/7/2
f 196/7/2 194/7/2 197/7/2
f 197/7/2 194/7/2 198/7/2
f 198/7/2 194/7/2 199/7/2
f 199/7/2 194/7/2 200/7/2
f 196/4/2 197/4/2 201/4/2
f 197/3/2 198/3/2 202/3/2
f 201/4/2 197/4/2 202/4/2
f 198/4/2 199/4/2 203/4/2
f 202/3/2 198/3/2 203/3/2
f 203/4/2 199/4/2 204/4/2
f 196/4/2 201/4/2 205/4/2
f 201/2/2 202/2/2 206/2/2
f 205/4/2 201/4/2 206/4/2
f 202/2/2 203/2/2 206/2/2
f 203/2/2 204/2/2 206/2/2
f 204/4/2 199/4/2 207/4/2
f 206/2/2 204/2/2 207/2/2
f 207/4/2 199/4/2 208/4/2
f 209/7/2 210/7/2 213/7/2
f 213/7/2 210/7/2 214/7/2
f 214/7/2 210/7/2 215/7/2
f 215/7/2 210/7/2 216/7/2
f 211/7/2 212/7/2 217/7/2
f 217/7/2 212/7/2 218/7/2
f 218/7/2 212/7/2 219/7/2
f 219/7/2 212/7/2 220/7/2
f 213/4/2 214/4/2 221/4/2
f 214/3/2 215/3/2 222/3/2
f 221/4/2 214/4/2 222/4/2
f 215/4/2 216/4/2 223/4/2
f 222/3/2 215/3/2 223/3/2
f 223/4/2 216/4/2 224/4/2
f 217/4/2 218/4/2 225/4/2
f 218/3/2 219/3/2 226/3/2
f 225/4/2 218/4/2 226/4/2
f 219/4/2 220/4/2 227/4/2
f 226/3/2 219/3/2 227/3/2
f 227/4/2 220/4/2 228/4/2
f 221/7/2 222/7/2 229/7/2
f 223/7/2 224/7/2 229/7/2
f 222/7/2 223/7/2 229/7/2
f 229/7/2 224/7/2 230/7/2
f 227/7/2 228/7/2 231/7/2
f 225/7/2 226/7/2 231/7/2
f 226/7/2 227/7/2 231/7/2
f 231/7/2 228/7/2 232/7/2
f 237/7/3 234/7/3 233/7/3
f 237/4/3 235/4/3 234/4/3
f 238/7/3 236/7/3 235/7/3
f 238/4/3 235/4/3 237/4/3
f 239/7/3 237/7/3 233/7/3
f 239/3/3 238/3/3 237/3/3
f 240/7/3 236/7/3 238/7/3
f 240/3/3 238/3/3 239/3/3
f 241/7/3 239/7/3 233/7/3
f 242/4/3 240/4/3 239/4/3
f 242/7/3 239/7/3 241/7/3
f 243/7/3 236/7/3 240/7/3
f 243/4/3 240/4/3 242/4/3
f 244/7/3 236/7/3 243/7/3
f 247/8/3 246/8/3 245/8/3
f 248/8/3 246/8/3 247/8/3
f 251/8/3 250/8/3 249/8/3
f 252/8/3 250/8/3 251/8/3
f 255/8/3 254/8/3 253/8/3
f 256/8/3 254/8/3 255/8/3
f 261/7/3 258/7/3 257/7/3
f 262/7/3 258/7/3 261/7/3
f 263/7/3 260/7/3 259/7/3
f 264/7/3 260/7/3 263/7/3
f 267/7/3 266/7/3 265/7/3
f 268/7/3 266/7/3 267/7/3
f 271/4/3 270/4/3 269/4/3
f 272/4/3 270/4/3 271/4/3
f 273/4/3 271/4/3 269/4/3
f 274/4/3 270/4/3 272/4/3
f 275/4/3 273/4/3 269/4/3
f 275/4/3 274/4/3 273/4/3
f 276/4/3 270/4/3 274/4/3
f 276/4/3 274/4/3 275/4/3
f 281/4/3 278/4/3 277/4/3
f 282/4/3 278/4/3 281/4/3
f 283/4/3 280/4/3 279/4/3
f 284/4/3 280/4/3 283/4/3
f 287/4/3 286/4/3 285/4/3
f 288/4/3 286/4/3 287/4/3
f 291/3/3 290/3/3 289/3/3
f 292/3/3 290/3/3 291/3/3
f 295/7/3 294/7/3 293/7/3
f 296/7/3 294/7/3 295/7/3
f 301/4/3 299/4/3 298/4/3
f 302/4/3 299/4/3 301/4/3
f 303/4/3 301/4/3 298/4/3
f 304/4/3 299/4/3 302/4/3
f 305/7/3 298/7/3 297/7/3
f 306/4/3 304/4/3 303/4/3
f 306/7/3 298/7/3 305/7/3
f 306/4/3 303/4/3 298/4/3
f 307/7/3 300/7/3 299/7/3
f 307/4/3 304/4/3 306/4/3
f 307/4/3 299/4/3 304/4/3
f 308/7/3 300/7/3 307/7/3
f 311/8/3 310/8/3 309/8/3
f 312/8/3 310/8/3 311/8/3
f 315/8/3 314/8/3 313/8/3
f 316/8/3 314/8/3 315/8/3
f 319/8/3 318/8/3 317/8/3
f 320/8/3 318/8/3 319/8/3
f 325/7/3 322/7/3 321/7/3
f 326/7/3 322/7/3 325/7/3
f 327/7/3 324/7/3 323/7/3
f 328/7/3 324/7/3 327/7/3
f 329/7/4 330/7/4 333/7/4
f 333/7/4 330/7/4 334/7/4
f 331/7/4 332/7/4 335/7/4
f 335/7/4 332/7/4 336/7/4
f 337/8/4 338/8/4 339/8/4
f 339/8/4 338/8/4 340/8/4
f 341/8/4 342/8/4 343/8/4
f 343/8/4 342/8/4 344/8/4
f 345/8/4 346/8/4 347/8/4
f 347/8/4 346/8/4 348/8/4
f 350/4/4 351/4/4 353/4/4
f 353/4/4 351/4/4 354/4/4
f 350/4/4 353/4/4 355/4/4
f 354/4/4 351/4/4 356/4/4
f 349/7/4 350/7/4 357/7/4
f 355/4/4 356/4/4 358/4/4
f 357/7/4 350/7/4 358/7/4
f 350/4/4 355/4/4 358/4/4
f 351/7/4 352/7/4 359/7/4
f 358/4/4 356/4/4 359/4/4
f 356/4/4 351/4/4 359/4/4
f 359/7/4 352/7/4 360/7/4
f 361/7/4 362/7/4 363/7/4
f 363/7/4 362/7/4 364/7/4
f 365/3/4 366/3/4 367/3/4
f 367/3/4 366/3/4 368/3/4
f 369/4/4 370/4/4 371/4/4
f 371/4/4 370/4/4 372/4/4
f 373/4/4 374/4/4 377/4/4
f 377/4/4 374/4/4 378/4/4
f 375/4/4 376/4/4 379/4/4
f 379/4/4 376/4/4 380/4/4
f 381/4/4 382/4/4 383/4/4
f 383/4/4 382/4/4 384/4/4
f 381/4/4 383/4/4 385/4/4
f 384/4/4 382/4/4 386/4/4
f 381/4/4 385/4/4 387/4/4
f 385/4/4 386/4/4 387/4/4
f 386/4/4 382/4/4 388/4/4
f 387/4/4 386/4/4 388/4/4
f 389/7/4 390/7/4 391/7/4
f 391/7/4 390/7/4 392/7/4
f 393/7/4 394/7/4 397/7/4
f 397/7/4 394/7/4 398/7/4
f 395/7/4 396/7/4 399/7/4
f 399/7/4 396/7/4 400/7/4
f 401/8/4 402/8/4 403/8/4
f 403/8/4 402/8/4 404/8/4
f 405/8/4 406/8/4 407/8/4
f 407/8/4 406/8/4 408/8/4
f 409/8/4 410/8/4 411/8/4
f 411/8/4 410/8/4 412/8/4
f 413/7/4 414/7/4 417/7/4
f 414/4/4 415/4/4 417/4/4
f 415/7/4 416/7/4 418/7/4
f 417/4/4 415/4/4 418/4/4
f 413/7/4 417/7/4 419/7/4
f 417/3/4 418/3/4 419/3/4
f 418/7/4 416/7/4 420/7/4
f 419/3/4 418/3/4 420/3/4
f 413/7/4 419/7/4 421/7/4
f 419/4/4 420/4/4 422/4/4
f 421/7/4 419/7/4 422/7/4
f 420/7/4 416/7/4 423/7/4
f 422/4/4 420/4/4 423/4/4
f 423/7/4 416/7/4 424/7/4
f 427/7/5 426/7/5 425/7/5
f 428/7/5 426/7/5 427/7/5
f 429/7/5 427/7/5 425/7/5
f 430/7/5 426/7/5 428/7/5
f 431/7/5 429/7/5 425/7/5
f 431/7/5 430/7/5 429/7/5
f 432/7/5 426/7/5 430/7/5
f 432/7/5 430/7/5 431/7/5
f 435/1/5 434/1/5 433/1/5
f 436/1/5 434/1/5 435/1/5
f 439/7/5 438/7/5 437/7/5
f 440/7/5 438/7/5 439/7/5
f 441/7/5 439/7/5 437/7/5
f 442/7/5 438/7/5 440/7/5
f 443/7/5 441/7/5 437/7/5
f 443/7/5 442/7/5 441/7/5
f 444/7/5 438/7/5 442/7/5
f 444/7/5 442/7/5 443/7/5
f 447/7/5 446/7/5 445/7/5
f 448/7/5 446/7/5 447/7/5
f 449/7/5 447/7/5 445/7/5
f 450/7/5 446/7/5 448/7/5
f 451/7/5 449/7/5 445/7/5
f 451/7/5 450/7/5 449/7/5
f 452/7/5 446/7/5 450/7/5
f 452/7/5 450/7/5 451/7/5
f 455/1/5 454/1/5 453/1/5
f 456/1/5 454/1/5 455/1/5
f 459/1/5 458/1/5 457/1/5
f 460/1/5 458/1/5 459/1/5
f 463/4/5 462/4/5 461/4/5
f 464/4/5 462/4/5 463/4/5
f 465/3/5 464/3/5 463/3/5
f 466/3/5 464/3/5 465/3/5
f 467/4/5 466/4/5 465/4/5
f 468/4/5 466/4/5 467/4/5
f 471/4/5 470/4/5 469/4/5
f 472/4/5 470/4/5 471/4/5
f 473/3/5 472/3/5 471/3/5
f 474/3/5 472/3/5 473/3/5
f 475/4/5 474/4/5 473/4/5
f 476/4/5 474/4/5 475/4/5
f 477/7/6 478/7/6 479/7/6
f 479/7/6 478/7/6 480/7/6
f 480/7/6 478/7/6 481/7/6
f 481/7/6 478/7/6 482/7/6
f 477/7/6 479/7/6 483/7/6
f 477/7/6 483/7/6 484/7/6
f 477/7/6 484/7/6 487/7/6
f 485/7/6 486/7/6 488/7/6
f 477/7/6 487/7/6 489/7/6
f 487/7/6 488/7/6 489/7/6
f 488/7/6 486/7/6 490/7/6
f 489/7/6 488/7/6 490/7/6
f 491/4/6 492/4/6 493/4/6
f 493/4/6 492/4/6 494/4/6
f 493/2/6 494/2/6 495/2/6
f 495/2/6 494/2/6 496/2/6
f 495/4/6 496/4/6 497/4/6
f 497/4/6 496/4/6 498/4/6
f 499/4/6 500/4/6 501/4/6
f 501/4/6 500/4/6 502/4/6
f 501/3/6 502/3/6 503/3/6
f 503/3/6 502/3/6 504/3/6
f 503/4/6 504/4/6 505/4/6
f 505/4/6 504/4/6 506/4/6
f 507/4/6 508/4/6 509/4/6
f 509/4/6 508/4/6 510/4/6
f 509/3/6 510/3/6 511/3/6
f 511/3/6 510/3/6 512/3/6
f 511/4/6 512/4/6 513/4/6
f 513/4/6 512/4/6 514/4/6
f 515/5/6 516/5/6 517/5/6
f 517/5/6 516/5/6 518/5/6
f 518/5/6 516/5/6 519/5/6
f 519/5/6 516/5/6 520/5/6
f 515/5/6 517/5/6 521/5/6
f 517/6/6 518/6/6 522/6/6
f 521/5/6 517/5/6 522/5/6
f 522/6/6 518/6/6 523/6/6
f 519/6/6 520/6/6 524/6/6
f 520/5/6 516/5/6 525/5/6
f 524/6/6 520/6/6 525/6/6
f 525/5/6 516/5/6 526/5/6
f 515/5/6 521/5/6 527/5/6
f 521/6/6 522/6/6 527/6/6
f 527/6/6 522/6/6 528/6/6
f 525/6/6 526/6/6 531/6/6
f 526/5/6 516/5/6 532/5/6
f 531/6/6 526/6/6 532/6/6
f 528/6/6 529/6/6 533/6/6
f 527/5/6 528/5/6 533/5/6
f 533/6/6 529/6/6 534/6/6
f 530/6/6 531/6/6 535/6/6
f 531/5/6 532/5/6 536/5/6
f 535/6/6 531/6/6 536/6/6
f 533/5/6 534/5/6 537/5/6
f 515/5/6 527/5/6 537/5/6
f 535/5/6 536/5/6 537/5/6
f 534/5/6 535/5/6 537/5/6
f 527/5/6 533/5/6 537/5/6
f 536/5/6 532/5/6 538/5/6
f 537/5/6 536/5/6 538/5/6
f 532/5/6 516/5/6 538/5/6
f 539/4/6 540/4/6 541/4/6
f 541/4/6 540/4/6 542/4/6
f 543/4/6 544/4/6 545/4/6
f 545/4/6 544/4/6 546/4/6
f 547/5/6 548/5/6 549/5/6
f 549/5/6 548/5/6 550/5/6
f 550/5/6 548/5/6 551/5/6
f 551/5/6 548/5/6 552/5/6
f 547/5/6 549/5/6 553/5/6
f 549/6/6 550/6/6 554/6/6
f 553/5/6 549/5/6 554/5/6
f 554/6/6 550/6/6 555/6/6
f 551/6/6 552/6/6 556/6/6
f 552/5/6 548/5/6 557/5/6
f 556/6/6 552/6/6 557/6/6
f 557/5/6 548/5/6 558/5/6
f 547/5/6 553/5/6 559/5/6
f 553/6/6 554/6/6 559/6/6
f 559/6/6 554/6/6 560/6/6
f 557/6/6 558/6/6 563/6/6
f 558/5/6 548/5/6 564/5/6
f 563/6/6 558/6/6 564/6/6
f 560/6/6 561/6/6 565/6/6
f 559/5/6 560/5/6 565/5/6
f 565/6/6 561/6/6 566/6/6
f 562/6/6 563/6/6 567/6/6
f 563/5/6 564/5/6 568/5/6
f 567/6/6 563/6/6 568/6/6
f 565/5/6 566/5/6 569/5/6
f 547/5/6 559/5/6 569/5/6
f 567/5/6 568/5/6 569/5/6
f 566/5/6 567/5/6 569/5/6
f 559/5/6 565/5/6 569/5/6
f 568/5/6 564/5/6 570/5/6
f 569/5/6 568/5/6 570/5/6
f 564/5/6 548/5/6 570/5/6
f 571/7/6 572/7/6 573/7/6
f 573/7/6 572/7/6 574/7/6
f 575/8/6 576/8/6 578/8/6
f 578/8/6 576/8/6 579/8/6
f 577/8/6 578/8/6 581/8/6
f 579/8/6 580/8/6 581/8/6
f 578/8/6 579/8/6 581/8/6
f 581/8/6 580/8/6 582/8/6
f 582/8/6 580/8/6 583/8/6
f 583/8/6 580/8/6 584/8/6
f 582/8/6 583/8/6 585/8/6
f 585/8/6 583/8/6 586/8/6
f 571/7/6 573/7/6 587/7/6
f 574/7/6 572/7/6 588/7/6
f 571/7/6 587/7/6 589/7/6
f 587/7/6 588/7/6 589/7/6
f 588/7/6 572/7/6 590/7/6
f 589/7/6 588/7/6 590/7/6
f 591/7/6 592/7/6 593/7/6
f 593/7/6 592/7/6 594/7/6
f 595/8/6 596/8/6 598/8/6
f 598/8/6 596/8/6 599/8/6
f 597/8/6 598/8/6 601/8/6
f 599/8/6 600/8/6 601/8/6
f 598/8/6 599/8/6 601/8/6
f 601/8/6 600/8/6 602/8/6
f 602/8/6 600/8/6 603/8/6
f 603/8/6 600/8/6 604/8/6
f 602/8/6 603/8/6 605/8/6
f 605/8/6 603/8/6 606/8/6
f 591/7/6 593/7/6 607/7/6
f 594/7/6 592/7/6 608/7/6
f 591/7/6 607/7/6 609/7/6
f 607/7/6 608/7/6 609/7/6
f 608/7/6 592/7/6 610/7/6
f 609/7/6 608/7/6 610/7/6
f 611/4/6 612/4/6 613/4/6
f 613/4/6 612/4/6 614/4/6
f 615/4/6 616/4/6 617/4/6
f 617/4/6 616/4/6 618/4/6
f 619/4/6 620/4/6 621/4/6
f 621/4/6 620/4/6 622/4/6
f 623/4/6 624/4/6 625/4/6
f 625/4/6 624/4/6 626/4/6
f 627/3/6 628/3/6 629/3/6
f 629/3/6 628/3/6 630/3/6
